<svg width="500" height="500" viewBox="0 0 500 500" fill="none" xmlns="http://www.w3.org/2000/svg">
    <rect width="500" height="500" rx="250" fill="#78E49D"/>
    <path opacity="0.984" fill-rule="evenodd" clip-rule="evenodd" d="M167.177 95.0244C177.496 95.0244 187.815 95.0244 198.134 95.0244C198.134 120.203 198.134 145.381 198.134 170.56C173.368 170.56 148.603 170.56 123.837 170.56C123.734 159.207 123.837 147.856 124.146 136.507C129.101 112.873 143.445 99.046 167.177 95.0244Z" fill="black"/>
    <path opacity="0.992" fill-rule="evenodd" clip-rule="evenodd" d="M237.759 95.0244C261.505 94.763 285.239 95.0726 308.96 95.9531C340.831 100.682 364.874 116.883 381.09 144.556C393.284 167.841 395.967 192.194 389.139 217.614C385.426 229.065 380.163 239.693 373.351 249.5C394.622 279.651 398.441 311.95 384.805 346.396C368.305 380.007 341.372 398.891 304.007 403.047C281.925 403.356 259.842 403.46 237.759 403.356C237.759 378.385 237.759 353.412 237.759 328.44C258.604 328.544 279.449 328.44 300.292 328.131C313.124 324.659 318.799 316.3 317.318 303.056C314.95 294.909 309.687 289.646 301.53 287.268C242.3 286.958 183.068 286.855 123.837 286.958C123.837 261.986 123.837 237.014 123.837 212.042C181.83 212.145 239.823 212.042 297.815 211.732C307.663 210.549 314.164 205.286 317.318 195.944C319.046 186.465 316.054 178.932 308.341 173.346C305.411 171.819 302.315 170.787 299.054 170.25C278.623 169.94 258.192 169.837 237.759 169.94C237.759 144.968 237.759 119.996 237.759 95.0244Z" fill="black"/>
    <path opacity="0.991" fill-rule="evenodd" clip-rule="evenodd" d="M123.837 328.44C148.603 328.44 173.368 328.44 198.134 328.44C198.134 353.412 198.134 378.385 198.134 403.356C142.282 409.213 117.517 384.241 123.837 328.44Z" fill="black"/>
</svg>
